<?xml version="1.0" encoding="UTF-8"?>
<svg width="178px" height="148px" viewBox="0 0 178 148" version="1.1" xmlns="http://www.w3.org/2000/svg" xmlns:xlink="http://www.w3.org/1999/xlink">
    <!-- Generator: Sketch 63.1 (92452) - https://sketch.com -->
    <title>noun_people_1049246</title>
    <desc>Created with Sketch.</desc>
    <g id="Page-1" stroke="none" stroke-width="1" fill="none" fill-rule="evenodd">
        <g id="Artboard" transform="translate(-11.000000, -26.000000)" fill="#000000" fill-rule="nonzero">
            <g id="noun_people_1049246" transform="translate(10.000000, 25.000000)">
                <g id="Group">
                    <path d="M160.125,65.8125 L156,65.625 C154.125,65.4375 152.25,66 150.75,66.9375 C145.3125,70.5 138.9375,72.5625 132.1875,72.5625 C125.25,72.5625 118.875,70.5 113.625,66.9375 C112.125,66 110.25,65.625 108.375,65.625 L104.25,65.8125 C102.9375,65.8125 101.625,66.1875 100.3125,66.375 C102.9375,70.875 104.25,76.125 104.0625,81.5625 L104.0625,81.75 L99.1875,137.8125 C99.1875,139.125 98.8125,140.4375 98.4375,141.5625 C98.625,141.5625 98.8125,141.5625 98.8125,141.5625 C110.4375,142.5 119.625,143.0625 132,143.0625 C144.375,143.0625 153.5625,142.5 165.1875,141.5625 C170.0625,141.1875 173.8125,137.25 174,132.5625 L178.6875,87 C179.625,76.125 171.1875,66.5625 160.125,65.8125 Z" id="Path"></path>
                    <circle id="Oval" cx="132.1875" cy="38.4375" r="28.125"></circle>
                    <path d="M78.5625,59.25 L74.4375,59.0625 C72.5625,58.875 70.6875,59.4375 69,60.375 C63.375,64.125 56.8125,66.1875 49.6875,66.1875 C42.5625,66.1875 36,64.125 30.375,60.375 C28.875,59.25 26.8125,58.875 24.9375,59.0625 L20.8125,59.25 C9.1875,60 0.375,69.9375 1.125,81.375 L6,137.4375 C6.375,142.5 10.3125,146.4375 15.1875,146.8125 C27.375,147.9375 36.9375,148.5 49.6875,148.5 C62.625,148.5 72.1875,147.9375 84.375,146.8125 C89.4375,146.4375 93.375,142.3125 93.5625,137.4375 L98.4375,81.375 C98.8125,69.9375 90.1875,60 78.5625,59.25 Z" id="Path"></path>
                    <circle id="Oval" cx="49.5" cy="30.75" r="29.25"></circle>
                </g>
            </g>
        </g>
    </g>
</svg>