<?xml version="1.0" encoding="UTF-8"?>
<svg width="177px" height="177px" viewBox="0 0 177 177" version="1.1" xmlns="http://www.w3.org/2000/svg" xmlns:xlink="http://www.w3.org/1999/xlink">
    <!-- Generator: Sketch 63.1 (92452) - https://sketch.com -->
    <title>noun_Plane_2869629</title>
    <desc>Created with Sketch.</desc>
    <g id="Page-1" stroke="none" stroke-width="1" fill="none" fill-rule="evenodd">
        <g id="Artboard-Copy" transform="translate(-13.000000, -10.000000)" fill="#FFFFFF" fill-rule="nonzero">
            <g id="noun_Plane_2869629" transform="translate(13.000000, 10.000000)">
                <path d="M174.564608,2.44285714 C168.017419,-4.09686636 142.0153,8.65410138 133.303134,17.3737327 L110.772442,39.904424 L12.8781567,22.6294009 C12.1316129,22.495023 11.3626728,22.7339171 10.8251613,23.2714286 L1.52322581,32.5808295 C0.993179724,33.1108756 0.746820276,33.8648848 0.866267281,34.6039631 C0.985714286,35.3430415 1.44857143,35.9776037 2.12046083,36.3135484 L78.7307834,74.6187097 L46.2859908,116.134009 L17.5291244,111.057512 C16.7751152,110.938065 16.0136406,111.162028 15.476129,111.699539 L8.4959447,118.679724 C7.98082949,119.194839 7.72700461,119.933917 7.83152074,120.658065 C7.95096774,121.397143 8.38396313,122.031705 9.03345622,122.36765 L32.7138249,135.118618 L26.6668203,147.205161 C26.218894,148.101014 26.3980645,149.183502 27.1072811,149.885253 C27.5626728,150.33318 28.1524424,150.557143 28.7571429,150.557143 C29.1080184,150.557143 29.4663594,150.482488 29.7948387,150.318249 L41.8813825,144.271244 L54.6323502,167.951613 C54.9832258,168.593641 55.617788,169.041567 56.3419355,169.161014 C56.4539171,169.175945 56.5584332,169.175945 56.6778802,169.175945 C57.2900461,169.175945 57.8798157,168.944516 58.3277419,168.504055 L65.3079263,161.516406 C65.8454378,160.978894 66.0843318,160.217419 65.9574194,159.478341 L60.8809217,130.706544 L102.396221,98.2617512 L140.701382,174.872074 C141.037327,175.543963 141.679355,176.00682 142.410968,176.126267 C142.53788,176.148664 142.657327,176.156129 142.799171,176.156129 C143.411336,176.156129 143.986175,175.917235 144.434101,175.476774 L153.750968,166.167373 C154.273548,165.629862 154.527373,164.868387 154.392995,164.114378 L137.117972,66.2200922 L159.648664,43.6894009 C168.368295,34.977235 181.111797,8.99004608 174.564608,2.44285714 Z" id="Path"></path>
            </g>
        </g>
    </g>
</svg>