<?xml version="1.0" encoding="UTF-8"?>
<svg width="178px" height="148px" viewBox="0 0 178 148" version="1.1" xmlns="http://www.w3.org/2000/svg" xmlns:xlink="http://www.w3.org/1999/xlink">
    <!-- Generator: Sketch 63.1 (92452) - https://sketch.com -->
    <title>noun_people_1049246</title>
    <desc>Created with Sketch.</desc>
    <g id="Page-1" stroke="none" stroke-width="1" fill="none" fill-rule="evenodd">
        <g id="Artboard-Copy" transform="translate(-11.000000, -26.000000)" fill="#FFFFFF" fill-rule="nonzero">
            <g id="noun_people_1049246" transform="translate(11.000000, 26.000000)">
                <g id="Group">
                    <path d="M159.125,64.8125 L155,64.625 C153.125,64.4375 151.25,65 149.75,65.9375 C144.3125,69.5 137.9375,71.5625 131.1875,71.5625 C124.25,71.5625 117.875,69.5 112.625,65.9375 C111.125,65 109.25,64.625 107.375,64.625 L103.25,64.8125 C101.9375,64.8125 100.625,65.1875 99.3125,65.375 C101.9375,69.875 103.25,75.125 103.0625,80.5625 L103.0625,80.75 L98.1875,136.8125 C98.1875,138.125 97.8125,139.4375 97.4375,140.5625 C97.625,140.5625 97.8125,140.5625 97.8125,140.5625 C109.4375,141.5 118.625,142.0625 131,142.0625 C143.375,142.0625 152.5625,141.5 164.1875,140.5625 C169.0625,140.1875 172.8125,136.25 173,131.5625 L177.6875,86 C178.625,75.125 170.1875,65.5625 159.125,64.8125 Z" id="Path"></path>
                    <circle id="Oval" cx="131.1875" cy="37.4375" r="28.125"></circle>
                    <path d="M77.5625,58.25 L73.4375,58.0625 C71.5625,57.875 69.6875,58.4375 68,59.375 C62.375,63.125 55.8125,65.1875 48.6875,65.1875 C41.5625,65.1875 35,63.125 29.375,59.375 C27.875,58.25 25.8125,57.875 23.9375,58.0625 L19.8125,58.25 C8.1875,59 -0.625,68.9375 0.125,80.375 L5,136.4375 C5.375,141.5 9.3125,145.4375 14.1875,145.8125 C26.375,146.9375 35.9375,147.5 48.6875,147.5 C61.625,147.5 71.1875,146.9375 83.375,145.8125 C88.4375,145.4375 92.375,141.3125 92.5625,136.4375 L97.4375,80.375 C97.8125,68.9375 89.1875,59 77.5625,58.25 Z" id="Path"></path>
                    <circle id="Oval" cx="48.5" cy="29.75" r="29.25"></circle>
                </g>
            </g>
        </g>
    </g>
</svg>