<?xml version="1.0" encoding="UTF-8"?>
<svg width="180px" height="152px" viewBox="0 0 180 152" version="1.1" xmlns="http://www.w3.org/2000/svg" xmlns:xlink="http://www.w3.org/1999/xlink">
    <!-- Generator: Sketch 63.1 (92452) - https://sketch.com -->
    <title>noun_Airplane_936564</title>
    <desc>Created with Sketch.</desc>
    <g id="Page-1" stroke="none" stroke-width="1" fill="none" fill-rule="evenodd">
        <g id="Artboard" transform="translate(-10.000000, -24.000000)" fill="#000000" fill-rule="nonzero">
            <g id="noun_Airplane_936564" transform="translate(10.000000, 24.000000)">
                <g id="Group">
                    <path d="M3.64694233,66.0924394 L53.0464338,80.3486685 L43.4317677,112.839609 C43.1002275,113.83423 43.1002275,115.160391 43.7633079,116.155011 C44.4263883,117.149632 45.0894688,117.812712 46.0840894,118.144253 L69.6234444,125.106597 C69.9549846,125.106597 70.2865248,125.106597 70.618065,125.106597 C71.9442259,125.106597 72.9388465,124.443517 73.9334671,123.448896 L97.8043624,93.610277 L154.497739,110.187288 C156.48698,110.850368 158.144681,110.850368 160.133922,110.850368 C168.753968,110.850368 176.710933,105.214184 179.031714,96.5941389 C179.363254,95.2679781 179.031714,93.610277 178.037094,92.6156564 L150.850796,64.1031982 C150.187716,63.4401178 149.524635,63.1085775 148.861555,63.1085775 L39.1217449,32.6068781 L24.2024354,5.75212097 C23.539355,4.75750033 22.8762746,4.09441991 21.881654,3.7628797 L10.940827,0.447477586 C9.61466613,0.115937375 8.6200455,0.447477586 7.29388465,1.11055801 C6.29926402,1.77363843 5.63618359,2.76825907 5.63618359,4.09441991 L0.331540211,62.1139569 C0.331540211,63.771658 1.65770106,65.7608992 3.64694233,66.0924394 Z" id="Path"></path>
                    <path d="M81.558892,37.2484411 L115.044453,46.8631072 C115.375994,46.8631072 115.707534,47.1946474 116.370614,47.1946474 C118.028315,47.1946474 119.686016,45.8684866 120.349097,44.2107855 L125.98528,23.6552924 C126.316821,22.6606718 126.316821,21.3345109 125.65374,20.3398903 C124.99066,19.3452696 124.327579,18.6821892 123.332959,18.350649 L99.4620634,11.7198448 C97.8043624,11.3883046 96.1466613,11.7198448 95.1520407,13.0460056 L79.5696507,30.2860966 C78.5750301,31.2807172 78.2434899,32.9384183 78.5750301,34.2645792 C78.9065703,35.59074 80.2327312,36.9169008 81.558892,37.2484411 Z" id="Path"></path>
                    <rect id="Rectangle" x="0.994620634" y="140.688987" width="174.721691" height="11.2723672"></rect>
                </g>
            </g>
        </g>
    </g>
</svg>