<?xml version="1.0" encoding="UTF-8"?>
<svg width="194px" height="180px" viewBox="0 0 194 180" version="1.1" xmlns="http://www.w3.org/2000/svg" xmlns:xlink="http://www.w3.org/1999/xlink">
    <!-- Generator: Sketch 63.1 (92452) - https://sketch.com -->
    <title>noun_Home User_2482064</title>
    <desc>Created with Sketch.</desc>
    <g id="Page-1" stroke="none" stroke-width="1" fill="none" fill-rule="evenodd">
        <g id="Artboard" transform="translate(-3.000000, -10.000000)" fill="#000000" fill-rule="nonzero">
            <g id="noun_Home-User_2482064" transform="translate(2.894737, 10.000000)">
                <path d="M189.982895,73.9586842 L103.128158,2.43236842 C103.118684,2.42289474 103.104474,2.41815789 103.090263,2.40868421 C102.730263,2.11026316 102.332368,1.87105263 101.934474,1.63421053 C101.79,1.54894737 101.662105,1.43763158 101.512895,1.35947368 C101.178947,1.18421053 100.823684,1.06815789 100.475526,0.935526316 C99.4168421,0.530526316 98.3155263,0.324473684 97.2023684,0.314327093 C96.0110526,0.300789474 94.8244737,0.511578947 93.6876316,0.954473684 C93.3536842,1.08236842 93.0126316,1.19368421 92.6928947,1.35947368 C92.5626316,1.42815789 92.4465789,1.53 92.3210526,1.60578947 C91.9042105,1.85210526 91.4921053,2.10078947 91.1107895,2.41105263 C91.1013158,2.41815789 91.0894737,2.42289474 91.08,2.43236842 L4.22526316,73.9586842 C0.187105263,77.2839474 -0.390789474,83.2547368 2.93684211,87.2928947 C4.81026316,89.5665789 7.52210526,90.7436842 10.2552632,90.7436842 L31.6444737,90.7436842 L31.6444737,170.216053 C31.6444737,175.447895 35.8863158,179.689737 41.1181579,179.689737 L95.0068421,179.689737 L99.1942105,179.689737 L153.085263,179.689737 C158.317105,179.689737 162.558947,175.447895 162.558947,170.216053 L162.558947,90.7413158 L183.938684,90.7413158 C183.943421,90.7413158 183.948158,90.7413158 183.952895,90.7413158 C183.957632,90.7413158 183.962368,90.7413158 183.967105,90.7413158 L184.379211,90.7413158 L184.336579,90.6986842 C186.937105,90.5944737 189.485526,89.4576316 191.271316,87.2905263 C194.598947,83.2523684 194.021053,77.2815789 189.982895,73.9586842 Z M97.1052632,29.4181579 C110.576842,29.4181579 121.502368,40.3413158 121.502368,53.8152632 C121.502368,67.2892105 110.579211,78.2123684 97.1052632,78.2123684 C83.6313158,78.2123684 72.7081579,67.2892105 72.7081579,53.8152632 C72.7081579,40.3413158 83.6336842,29.4181579 97.1052632,29.4181579 Z M133.998158,157.796053 C133.998158,162.724737 129.967105,166.720263 124.991053,166.720263 L69.2194737,166.720263 C64.2434211,166.720263 60.2123684,162.724737 60.2123684,157.796053 L60.2123684,120.493421 C60.2123684,119.842105 60.2905263,119.209737 60.4231579,118.596316 C60.5510526,98.4410526 76.9192105,82.1368421 97.1052632,82.1368421 C117.293684,82.1368421 133.664211,98.4434211 133.787368,118.601053 C133.92,119.212105 133.998158,119.842105 133.998158,120.493421 L133.998158,157.796053 Z" id="Shape"></path>
            </g>
        </g>
    </g>
</svg>